<svg id="visual" viewBox="0 0 2048 1080" width="2048" height="1080" xmlns="http://www.w3.org/2000/svg" xmlns:xlink="http://www.w3.org/1999/xlink" version="1.1"><rect x="0" y="0" width="2048" height="1080" fill="#FFFFFF"></rect><defs><linearGradient id="grad1_0" x1="47.3%" y1="0%" x2="100%" y2="100%"><stop offset="12.074074074074073%" stop-color="#e8daff" stop-opacity="1"></stop><stop offset="87.92592592592592%" stop-color="#e8daff" stop-opacity="1"></stop></linearGradient></defs><defs><linearGradient id="grad1_1" x1="47.3%" y1="0%" x2="100%" y2="100%"><stop offset="12.074074074074073%" stop-color="#e8daff" stop-opacity="1"></stop><stop offset="87.92592592592592%" stop-color="#ffffff" stop-opacity="1"></stop></linearGradient></defs><defs><linearGradient id="grad2_0" x1="0%" y1="0%" x2="52.7%" y2="100%"><stop offset="12.074074074074073%" stop-color="#e8daff" stop-opacity="1"></stop><stop offset="87.92592592592592%" stop-color="#e8daff" stop-opacity="1"></stop></linearGradient></defs><defs><linearGradient id="grad2_1" x1="0%" y1="0%" x2="52.7%" y2="100%"><stop offset="12.074074074074073%" stop-color="#ffffff" stop-opacity="1"></stop><stop offset="87.92592592592592%" stop-color="#e8daff" stop-opacity="1"></stop></linearGradient></defs><g transform="translate(2048, 0)"><path d="M0 1026C-136.4 1005.9 -272.8 985.7 -383.8 926.7C-494.9 867.6 -580.6 769.6 -678.8 678.8C-777.1 588.1 -887.9 504.6 -947.9 392.6C-1007.9 280.7 -1016.9 140.4 -1026 0L0 0Z" fill="#f4ecff"></path><path d="M0 513C-68.2 502.9 -136.4 492.9 -191.9 463.3C-247.4 433.8 -290.3 384.8 -339.4 339.4C-388.5 294 -444 252.3 -474 196.3C-503.9 140.4 -508.5 70.2 -513 0L0 0Z" fill="#e8daff"></path></g><g transform="translate(0, 1080)"><path d="M0 -1026C121.7 -970.3 243.5 -914.7 356.3 -860.1C469.1 -805.6 573 -752.2 678.1 -678.1C783.3 -604 889.7 -509.1 947.9 -392.6C1006.1 -276.2 1016 -138.1 1026 0L0 0Z" fill="#f4ecff"></path><path d="M0 -513C60.9 -485.2 121.7 -457.3 178.1 -430.1C234.5 -402.8 286.5 -376.1 339.1 -339.1C391.6 -302 444.9 -254.6 474 -196.3C503 -138.1 508 -69 513 0L0 0Z" fill="#e8daff"></path></g></svg>